<svg xmlns="http://www.w3.org/2000/svg" xmlns:xlink="http://www.w3.org/1999/xlink" version="1.1" x="0px" y="0px" viewBox="0 0 100 125" enable-background="new 0 0 100 100" xml:space="preserve"><g><path d="M38.3,74.7c0,1.7,5.2,3.2,11.7,3.2c6.5,0,11.7-1.4,11.7-3.2c0-1.4-3.3-2.6-7.8-3c0.1-0.5,0.1-1,0.1-1s-1-4.7,0.3-7.4   c1.3-2.7,0.8-6.7,0.5-7.3c-0.3-0.6-0.7-3.6,0-4.8c0.7-1.2,1-4,1.4-8.3c0.4-4.3-0.8-5.1-0.8-5.1v-3.5h0.8c2.5-0.2,2.8-5.3,3.1-7.6   c0.3-2.3,2-4.4,0-7.1c-2-2.7-6.7-3.7-6.7-3.7l0.1-2.5c0,0,1.3-1.1,1.2-4.8C53.6,5,50.5,5,50.5,5h-1.1c0,0-3.1,0-3.2,3.7   c-0.1,3.7,1.2,4.8,1.2,4.8l0.1,2.5c0,0-4.8,1-6.7,3.7c-2,2.7-0.3,4.8,0,7.1c0.3,2.3,0.7,7.4,3.1,7.6h0.8v3.5c0,0-1.2,0.8-0.8,5.1   c0.4,4.3,0.7,7.1,1.4,8.3c0.7,1.2,0.3,4.3,0,4.8c-0.3,0.6-0.8,4.6,0.5,7.3c1.3,2.7,0.3,7.4,0.3,7.4s0,0.4,0.1,1   C41.6,72.1,38.3,73.3,38.3,74.7L38.3,74.7z"/><path d="M63.2,81.5c0.4-0.5,0.6-1.1,0.6-1.8c-0.1-3-1.3-3.6-1.7-3.7c-2.9,2.7-10.7,2.8-12.6,2.8c-1.8,0-9.1-0.2-12.2-2.6   c-0.5,0.4-1.1,1.3-1.2,3.5c0,0.7,0.2,1.3,0.6,1.8c-3.2,0.9-5.1,2-5.1,3.3v6.2c0,0,3.6,4.2,19.4,3.9c15.8-0.2,17.2-5.1,17.2-5.1   v-5.4h-0.1C67.9,83.4,66.1,82.3,63.2,81.5L63.2,81.5z"/></g><text x="0" y="115" fill="#000000" font-size="5px" font-weight="bold" font-family="'Helvetica Neue', Helvetica, Arial-Unicode, Arial, Sans-serif">Created by Federico Panzano</text><text x="0" y="120" fill="#000000" font-size="5px" font-weight="bold" font-family="'Helvetica Neue', Helvetica, Arial-Unicode, Arial, Sans-serif">from the Noun Project</text></svg>